<?xml version="1.0" encoding="UTF-8"?>
<svg id="Layer_2" data-name="Layer 2" xmlns="http://www.w3.org/2000/svg" viewBox="0 0 255.69 226.08">
  <defs>
    <style>
      .cls-1 {
        fill: #c48500;
      }

      .cls-2 {
        fill: #f6e2a0;
      }

      .cls-3 {
        fill: #24837b;
      }

      .cls-4 {
        fill: #f8ba1a;
      }

      .cls-5 {
        fill: #942822;
      }
    </style>
  </defs>
  <g id="Layer_1-2" data-name="Layer 1">
    <path class="cls-1" d="M169.89,68.53c-.49-.21-1.5-.18-2.19-.48-9.04-3.89-4.09-12.9.31-18.47,6.78-8.58,16.77-14.96,19.64-26.42,3.24-12.93-7-20.84-18.6-13.9-9.96,5.95-14.78,19.38-18.05,29.89-5.44,17.5-7.77,37.11-20.28,51.31-1.08-6.83-7.51-10.03-13.67-10.92-16.68-2.43-28.37,11.24-36.84,23.55-7.37,10.7-13,22.51-18.89,34.06-.65,0-1.85-6.77-1.99-7.71-1.77-11.34-.94-32.23-5.57-41.75-4.9-10.09-19.85-7.17-28.95-5.21-3.2.69-11.37,2.62-13.16,5.33-1.83,2.78,1.29,4.5,2.04,7.05,1.71,5.77-1.43,15.94-2.82,21.94-2.73,11.77-6.45,23.58-8.79,35.39-1.55,7.8-4.23,22.22.94,28.85,6.04,7.74,21.91,4.92,28.53-.94-1.7-2.91-3.08-5.42-3.78-8.77-2.9-13.79,3-40.12,7.86-53.58.13-.35.33-1.26.77-1.26.16.72.56,1.25.64,2.03,1.37,13.22.02,40.44,8.46,50.76,4.59,5.61,12.87,5.79,19.19,3.22,8.54-3.48,7.8-10.08,10.1-17.79,3.29-11,8.36-22.33,14.94-31.75.66-.95,4.75-6.56,5.38-6.45,1.36.23,1.16,2.55,1.1,3.54-.48,7.84-3.78,17.78-5.19,25.83-1.67,9.56-4.97,28.45,1.77,36.26,4.73,5.47,14.63,4.85,21,3.12,3.1-.84,11.92-3.78,10.66-7.99,4.1.68,8.36,1.79,12,3.82,15.16,8.47,15.75,28.56,27.79,39.89,10.33,9.72,23.43,5.1,21.54-9.95-1.27-10.13-12.44-21.57-20.29-27.5,9.84,4.88,21.41,1.92,20.68-10.81-.5-8.6-6.38-12.79-14.1-14.89,14.38.81,21.51,4.68,34.54,8.55,10.11,3,31.98,4.45,33.46-10.28,1.26-12.53-11.51-15.64-21.46-14.88-8.61.66-20.77,7.56-28.18,6.55s-1.94-8.7-6.45-11.88c9.6-3.59,25.83-10.44,27.17-22.18.7-6.07-3.08-8.79-.47-16.14,6.86-19.27,37.28-18.57,44.03-37.13,3.73-10.27-3.85-16.78-13.82-15.39-7.47,1.04-16.17,6.57-21.96,11.25-10.38,8.38-18.24,19.46-26.17,30.07-1.27-1.53-2.05-1.58-2.83-3.9-4.69-13.91,16.42-32.51,26.18-40.27,9.11-7.24,26.88-15.5,31.12-26.22,4.14-10.46-4.7-17.61-14.75-15.69-16.16,3.1-25.72,23.89-34.33,36.17-8.07,11.51-17.98,22.52-28.27,32.05Z"/>
    <path class="cls-1" d="M235.93,102.14c-5.05.64-9.99,4.05-13.03,7.96-2.74,3.51-7.24,9.82-2.23,13.4,5.95,4.25,19.26-.6,23.96-5.45,7.73-7.97,1.84-17.25-8.7-15.91Z"/>
    <path class="cls-2" d="M124.2,177.09c-.01.12.24.1.26.17,1.27,4.21-7.56,7.15-10.66,7.99-6.37,1.72-16.27,2.34-21-3.12-6.75-7.81-3.45-26.7-1.77-36.26,1.41-8.05,4.71-17.99,5.19-25.83.06-.99.26-3.31-1.1-3.54-.63-.11-4.72,5.51-5.38,6.45-6.58,9.42-11.65,20.75-14.94,31.75-2.3,7.7-1.56,14.31-10.1,17.79-6.32,2.57-14.6,2.39-19.19-3.22-8.44-10.32-7.09-37.54-8.46-50.76-.08-.78-.48-1.3-.64-2.03-.44,0-.64.91-.77,1.26-4.86,13.46-10.76,39.79-7.86,53.58.7,3.35,2.08,5.86,3.78,8.77-6.62,5.87-22.5,8.68-28.53.94-5.17-6.63-2.49-21.05-.94-28.85,2.34-11.81,6.06-23.62,8.79-35.39,1.39-6.01,4.53-16.17,2.82-21.94-.75-2.55-3.87-4.27-2.04-7.05,1.78-2.71,9.96-4.64,13.16-5.33,9.09-1.96,24.05-4.88,28.95,5.21,4.62,9.52,3.79,30.41,5.57,41.75.15.94,1.35,7.72,1.99,7.71,5.89-11.55,11.51-23.36,18.89-34.06,8.48-12.3,20.16-25.98,36.84-23.55,6.16.9,12.59,4.09,13.67,10.92,1.91,12.11-5.13,35.99-7.52,48.88-.84,4.54-1.65,8.86-2.19,13.47-.56,4.71-1.12,8.71-.63,13.47.21,2.01.23,4,1.19,5.87.08.16.06.42.26.45"/>
    <path class="cls-4" d="M121.83,172.61c.06,0,.15,0,.28-.06.44-.19,2.19-1.97,2.88-2.45,14-9.83,30.24-13.22,47.1-12.27,7.71,2.1,13.6,6.29,14.1,14.89.74,12.72-10.83,15.69-20.68,10.81-9.36-7.07-20.81-11.03-32.7-9.36-2.08.29-6.76,1.37-8.35,2.63-.19.15-.25.24-.26.29"/>
    <path class="cls-4" d="M192.77,86.39c5.47,6.57,5.76,11.64.95,18.97-8.14,12.39-22.25,12.37-34.87,17.15-6.96,2.64-13.02,6.33-18.87,10.9-7.08,5.53-14.01,11.88-18.97,19.41.54-4.61,1.35-8.93,2.19-13.47,6.36-11.38,13.85-22.38,24.16-30.52,8.96-7.07,22.65-13.08,27.28-24.1,2.64-6.27,2.14-13.2-4.76-16.19,10.29-9.53,20.2-20.54,28.27-32.05C206.78,24.2,216.34,3.41,232.5.31c10.04-1.93,18.89,5.22,14.75,15.69-4.24,10.72-22.02,18.98-31.12,26.22-9.77,7.76-30.87,26.36-26.18,40.27.78,2.33,1.56,2.38,2.83,3.9Z"/>
    <path class="cls-3" d="M183.99,135.9c-2.41-1.7-8.82-1.55-11.75-1.25-15.01,1.56-30.52,10.55-41.52,20.52-3.6,3.26-7.5,7.24-10.34,11.13-.49-4.77.07-8.76.63-13.47,4.96-7.53,11.89-13.88,18.97-19.41,5.84-4.57,11.9-8.26,18.87-10.9,12.62-4.78,26.73-4.76,34.87-17.15,4.81-7.33,4.52-12.39-.95-18.97,7.93-10.61,15.79-21.69,26.17-30.07,5.79-4.68,14.5-10.21,21.96-11.25,9.98-1.39,17.56,5.13,13.82,15.39-6.75,18.55-37.17,17.85-44.03,37.13-2.61,7.34,1.16,10.06.47,16.14-1.34,11.74-17.57,18.59-27.17,22.18Z"/>
    <path class="cls-5" d="M169.89,68.53c6.9,3,7.39,9.93,4.76,16.19-4.64,11.02-18.32,17.03-27.28,24.1-10.31,8.14-17.8,19.14-24.16,30.52,2.39-12.89,9.43-36.77,7.52-48.88,12.52-14.21,14.84-33.81,20.28-51.31,3.27-10.52,8.09-23.94,18.05-29.89,11.61-6.94,21.85.98,18.6,13.9-2.87,11.46-12.86,17.84-19.64,26.42-4.41,5.57-9.35,14.58-.31,18.47.68.29,1.7.27,2.19.48Z"/>
    <path class="cls-5" d="M183.99,135.9c4.51,3.18-.72,10.9,6.45,11.88s19.57-5.89,28.18-6.55c9.94-.76,22.72,2.34,21.46,14.88-1.48,14.73-23.35,13.28-33.46,10.28-13.03-3.87-20.15-7.74-34.54-8.55-16.87-.95-33.11,2.45-47.1,12.27-.68.48-2.44,2.26-2.88,2.45-.5.22-.42-.18-.53-.39-.95-1.87-.98-3.87-1.19-5.87,2.84-3.89,6.74-7.87,10.34-11.13,11-9.97,26.52-18.96,41.52-20.52,2.93-.3,9.34-.44,11.75,1.25Z"/>
    <path class="cls-3" d="M124.46,177.26c-.03-.1-.57,0,0-.46,1.58-1.26,6.27-2.34,8.35-2.63,11.89-1.67,23.34,2.29,32.7,9.36,7.85,5.93,19.01,17.37,20.29,27.5,1.89,15.05-11.21,19.67-21.54,9.95-12.04-11.34-12.63-31.42-27.79-39.89-3.64-2.03-7.9-3.14-12-3.82Z"/>
    <path class="cls-4" d="M235.93,102.14c10.54-1.34,16.43,7.94,8.7,15.91-4.7,4.85-18.01,9.7-23.96,5.45-5.01-3.58-.51-9.89,2.23-13.4,3.04-3.91,7.98-7.32,13.03-7.96Z"/>
  </g>
</svg>